<svg width="143" height="28" viewBox="0 0 143 28" fill="none" xmlns="http://www.w3.org/2000/svg">
<path d="M4.75108 4.74446H8.02232V8.01113H4.75108V4.74446Z" fill="url(#paint0_linear_6329_555)"/>
<path d="M4.75108 4.74446H8.02232V8.01113H4.75108V4.74446Z" fill="url(#paint1_radial_6329_555)"/>
<path d="M4.75108 8.55557H8.02232V11.8222H4.75108V8.55557Z" fill="url(#paint2_linear_6329_555)"/>
<path d="M4.75108 8.55557H8.02232V11.8222H4.75108V8.55557Z" fill="url(#paint3_radial_6329_555)"/>
<path d="M4.75108 12.3667H8.02232V15.6334H4.75108V12.3667Z" fill="url(#paint4_linear_6329_555)"/>
<path d="M4.75108 12.3667H8.02232V15.6334H4.75108V12.3667Z" fill="url(#paint5_radial_6329_555)"/>
<path d="M4.75108 16.1778H8.02232V19.4445H4.75108V16.1778Z" fill="url(#paint6_linear_6329_555)"/>
<path d="M4.75108 16.1778H8.02232V19.4445H4.75108V16.1778Z" fill="url(#paint7_radial_6329_555)"/>
<path d="M4.75108 19.9889H8.02232V23.2556H4.75108V19.9889Z" fill="url(#paint8_linear_6329_555)"/>
<path d="M4.75108 19.9889H8.02232V23.2556H4.75108V19.9889Z" fill="url(#paint9_radial_6329_555)"/>
<path d="M8.56753 19.9889H11.8388V23.2556H8.56753V19.9889Z" fill="url(#paint10_linear_6329_555)"/>
<path d="M8.56753 19.9889H11.8388V23.2556H8.56753V19.9889Z" fill="url(#paint11_radial_6329_555)"/>
<path d="M8.56753 23.8H11.8388V27.0667H8.56753V23.8Z" fill="url(#paint12_linear_6329_555)"/>
<path d="M8.56753 23.8H11.8388V27.0667H8.56753V23.8Z" fill="url(#paint13_radial_6329_555)"/>
<path d="M12.384 23.8H15.6552V27.0667H12.384V23.8Z" fill="url(#paint14_linear_6329_555)"/>
<path d="M12.384 23.8H15.6552V27.0667H12.384V23.8Z" fill="url(#paint15_radial_6329_555)"/>
<path d="M16.2004 23.8H19.4717V27.0667H16.2004V23.8Z" fill="url(#paint16_linear_6329_555)"/>
<path d="M16.2004 23.8H19.4717V27.0667H16.2004V23.8Z" fill="url(#paint17_radial_6329_555)"/>
<path d="M20.0169 23.8H23.2881V27.0667H20.0169V23.8Z" fill="url(#paint18_linear_6329_555)"/>
<path d="M20.0169 23.8H23.2881V27.0667H20.0169V23.8Z" fill="url(#paint19_radial_6329_555)"/>
<path d="M20.0169 19.9889H23.2881V23.2556H20.0169V19.9889Z" fill="url(#paint20_linear_6329_555)"/>
<path d="M20.0169 19.9889H23.2881V23.2556H20.0169V19.9889Z" fill="url(#paint21_radial_6329_555)"/>
<path d="M20.0169 16.1778H23.2881V19.4445H20.0169V16.1778Z" fill="url(#paint22_linear_6329_555)"/>
<path d="M20.0169 16.1778H23.2881V19.4445H20.0169V16.1778Z" fill="url(#paint23_radial_6329_555)"/>
<path d="M20.0169 12.3667H23.2881V15.6334H20.0169V12.3667Z" fill="url(#paint24_linear_6329_555)"/>
<path d="M20.0169 12.3667H23.2881V15.6334H20.0169V12.3667Z" fill="url(#paint25_radial_6329_555)"/>
<path d="M16.2004 12.3667H19.4717V15.6334H16.2004V12.3667Z" fill="url(#paint26_linear_6329_555)"/>
<path d="M16.2004 12.3667H19.4717V15.6334H16.2004V12.3667Z" fill="url(#paint27_radial_6329_555)"/>
<path d="M0.934631 8.55557H4.20587V11.8222H0.934631V8.55557Z" fill="url(#paint28_linear_6329_555)"/>
<path d="M0.934631 8.55557H4.20587V11.8222H0.934631V8.55557Z" fill="url(#paint29_radial_6329_555)"/>
<path d="M0.934631 12.3667H4.20587V15.6334H0.934631V12.3667Z" fill="url(#paint30_linear_6329_555)"/>
<path d="M0.934631 12.3667H4.20587V15.6334H0.934631V12.3667Z" fill="url(#paint31_radial_6329_555)"/>
<path d="M0.934631 16.1778H4.20587V19.4445H0.934631V16.1778Z" fill="url(#paint32_linear_6329_555)"/>
<path d="M0.934631 16.1778H4.20587V19.4445H0.934631V16.1778Z" fill="url(#paint33_radial_6329_555)"/>
<path d="M8.56753 4.74446H11.8388V8.01113H8.56753V4.74446Z" fill="url(#paint34_linear_6329_555)"/>
<path d="M8.56753 4.74446H11.8388V8.01113H8.56753V4.74446Z" fill="url(#paint35_radial_6329_555)"/>
<path d="M8.56753 0.93335H11.8388V4.20002H8.56753V0.93335Z" fill="url(#paint36_linear_6329_555)"/>
<path d="M8.56753 0.93335H11.8388V4.20002H8.56753V0.93335Z" fill="url(#paint37_radial_6329_555)"/>
<path d="M12.384 0.93335H15.6552V4.20002H12.384V0.93335Z" fill="url(#paint38_linear_6329_555)"/>
<path d="M12.384 0.93335H15.6552V4.20002H12.384V0.93335Z" fill="url(#paint39_radial_6329_555)"/>
<path d="M16.2004 0.93335H19.4717V4.20002H16.2004V0.93335Z" fill="url(#paint40_linear_6329_555)"/>
<path d="M16.2004 0.93335H19.4717V4.20002H16.2004V0.93335Z" fill="url(#paint41_radial_6329_555)"/>
<path d="M20.0169 0.93335H23.2881V4.20002H20.0169V0.93335Z" fill="url(#paint42_linear_6329_555)"/>
<path d="M20.0169 0.93335H23.2881V4.20002H20.0169V0.93335Z" fill="url(#paint43_radial_6329_555)"/>
<path d="M23.8333 0.93335H27.1046V4.20002H23.8333V0.93335Z" fill="url(#paint44_linear_6329_555)"/>
<path d="M23.8333 0.93335H27.1046V4.20002H23.8333V0.93335Z" fill="url(#paint45_radial_6329_555)"/>
<path d="M23.8333 23.8H27.1046V27.0667H23.8333V23.8Z" fill="url(#paint46_linear_6329_555)"/>
<path d="M23.8333 23.8H27.1046V27.0667H23.8333V23.8Z" fill="url(#paint47_radial_6329_555)"/>
<path d="M23.8333 19.9889H27.1046V23.2556H23.8333V19.9889Z" fill="url(#paint48_linear_6329_555)"/>
<path d="M23.8333 19.9889H27.1046V23.2556H23.8333V19.9889Z" fill="url(#paint49_radial_6329_555)"/>
<path d="M23.8333 16.1778H27.1046V19.4445H23.8333V16.1778Z" fill="url(#paint50_linear_6329_555)"/>
<path d="M23.8333 16.1778H27.1046V19.4445H23.8333V16.1778Z" fill="url(#paint51_radial_6329_555)"/>
<path d="M23.8333 12.3667H27.1046V15.6334H23.8333V12.3667Z" fill="url(#paint52_linear_6329_555)"/>
<path d="M23.8333 12.3667H27.1046V15.6334H23.8333V12.3667Z" fill="url(#paint53_radial_6329_555)"/>
<path d="M139.061 22.7928V10.3128H142.75V22.7928H139.061ZM140.899 8.74093C140.29 8.74093 139.786 8.5676 139.386 8.22093C138.986 7.86639 138.786 7.42124 138.786 6.88548C138.786 6.34972 138.986 5.90851 139.386 5.56184C139.786 5.2073 140.286 5.03002 140.886 5.03002C141.495 5.03002 142 5.2073 142.4 5.56184C142.8 5.90851 143 6.34972 143 6.88548C143 7.42124 142.8 7.86639 142.4 8.22093C142 8.5676 141.499 8.74093 140.899 8.74093Z" fill="white"/>
<path d="M128.247 23.0055C127.372 23.0055 126.592 22.8676 125.909 22.5918C125.225 22.3161 124.687 21.9025 124.295 21.3509C123.903 20.7915 123.708 20.0982 123.708 19.2709C123.708 18.5697 123.845 17.9867 124.12 17.5218C124.395 17.0491 124.771 16.6709 125.246 16.3873C125.729 16.0958 126.28 15.8752 126.897 15.7255C127.522 15.5758 128.176 15.4734 128.86 15.4182C129.669 15.3394 130.311 15.2646 130.786 15.1937C131.261 15.1228 131.603 15.0203 131.811 14.8864C132.02 14.7524 132.124 14.5515 132.124 14.2837V14.2009C132.124 13.8937 132.036 13.6258 131.861 13.3973C131.686 13.1609 131.436 12.9758 131.111 12.8418C130.794 12.7079 130.411 12.6409 129.96 12.6409C129.51 12.6409 129.11 12.7079 128.76 12.8418C128.418 12.9758 128.147 13.1649 127.947 13.4091C127.747 13.6534 127.63 13.937 127.597 14.26H124.133C124.191 13.4012 124.458 12.6567 124.933 12.0264C125.417 11.3961 126.092 10.9115 126.959 10.5728C127.826 10.2261 128.864 10.0528 130.073 10.0528C130.973 10.0528 131.778 10.1512 132.487 10.3482C133.195 10.5373 133.791 10.817 134.275 11.1873C134.767 11.5576 135.138 12.0067 135.388 12.5346C135.638 13.0624 135.763 13.6612 135.763 14.3309V22.7928H132.161V21.0318H132.111C131.878 21.4415 131.59 21.7921 131.249 22.0837C130.907 22.3752 130.49 22.6037 129.998 22.7691C129.506 22.9267 128.922 23.0055 128.247 23.0055ZM129.273 20.5828C129.865 20.5828 130.373 20.4803 130.798 20.2755C131.232 20.0706 131.565 19.7909 131.799 19.4364C132.032 19.0818 132.149 18.68 132.149 18.2309V16.9782C132.041 17.0334 131.899 17.0885 131.724 17.1437C131.549 17.1909 131.344 17.2382 131.111 17.2855C130.878 17.3249 130.623 17.3682 130.348 17.4155C130.073 17.4628 129.79 17.5061 129.498 17.5455C129.073 17.6085 128.689 17.707 128.347 17.8409C128.005 17.967 127.734 18.1403 127.534 18.3609C127.334 18.5737 127.234 18.8455 127.234 19.1764C127.234 19.4679 127.318 19.72 127.484 19.9328C127.651 20.1455 127.889 20.307 128.197 20.4173C128.506 20.5276 128.864 20.5828 129.273 20.5828Z" fill="white"/>
<path d="M119.059 23.0055C118.476 23.0055 117.976 22.8125 117.559 22.4264C117.15 22.0324 116.946 21.5558 116.946 20.9964C116.946 20.437 117.15 19.9643 117.559 19.5782C117.976 19.1843 118.476 18.9873 119.059 18.9873C119.651 18.9873 120.152 19.1843 120.56 19.5782C120.977 19.9643 121.185 20.437 121.185 20.9964C121.185 21.5558 120.977 22.0324 120.56 22.4264C120.152 22.8125 119.651 23.0055 119.059 23.0055Z" fill="white"/>
<path d="M108.696 23.1C107.554 23.1 106.537 22.9346 105.645 22.6037C104.753 22.2649 104.04 21.7803 103.506 21.15C102.973 20.5197 102.664 19.7594 102.581 18.8691H106.207C106.274 19.4128 106.516 19.8382 106.933 20.1455C107.35 20.4528 107.917 20.6064 108.634 20.6064C109.317 20.6064 109.851 20.4843 110.234 20.24C110.626 19.9958 110.822 19.6806 110.822 19.2946C110.822 18.9637 110.672 18.6958 110.372 18.4909C110.08 18.2861 109.663 18.1364 109.121 18.0418L106.808 17.6164C105.524 17.38 104.548 16.9546 103.881 16.34C103.214 15.7255 102.881 14.9376 102.881 13.9764C102.881 13.1885 103.106 12.4991 103.556 11.9082C104.015 11.3173 104.661 10.8603 105.495 10.5373C106.337 10.2143 107.333 10.0528 108.484 10.0528C109.626 10.0528 110.622 10.2261 111.472 10.5728C112.323 10.9115 112.986 11.3961 113.461 12.0264C113.944 12.6567 114.199 13.4052 114.224 14.2718H110.81C110.801 13.7676 110.593 13.35 110.184 13.0191C109.776 12.6882 109.242 12.5228 108.584 12.5228C107.95 12.5228 107.454 12.6528 107.095 12.9128C106.737 13.1649 106.558 13.4761 106.558 13.8464C106.558 14.1694 106.699 14.4334 106.983 14.6382C107.266 14.8431 107.658 14.9967 108.158 15.0991L110.66 15.56C111.993 15.8043 112.973 16.2061 113.598 16.7655C114.232 17.317 114.549 18.0537 114.549 18.9755C114.549 19.8028 114.299 20.5276 113.798 21.15C113.307 21.7646 112.619 22.2452 111.735 22.5918C110.86 22.9306 109.847 23.1 108.696 23.1Z" fill="white"/>
<path d="M72.4498 23.0764C71.1242 23.0764 69.957 22.8046 68.9482 22.2609C67.9393 21.7173 67.1515 20.957 66.5845 19.98C66.026 19.0031 65.7467 17.8646 65.7467 16.5646C65.7467 15.2567 66.026 14.1143 66.5845 13.1373C67.1515 12.1603 67.9393 11.4 68.9482 10.8564C69.957 10.3049 71.1242 10.0291 72.4498 10.0291C73.7921 10.0291 74.9635 10.3049 75.9639 10.8564C76.9727 11.4 77.7564 12.1603 78.315 13.1373C78.882 14.1143 79.1654 15.2567 79.1654 16.5646C79.1654 17.8646 78.882 19.0031 78.315 19.98C77.7564 20.957 76.9727 21.7173 75.9639 22.2609C74.9635 22.8046 73.7921 23.0764 72.4498 23.0764ZM72.4498 20.2518C73.0501 20.2518 73.5753 20.1061 74.0255 19.8146C74.4757 19.5152 74.8259 19.0897 75.076 18.5382C75.3261 17.9867 75.4512 17.3288 75.4512 16.5646C75.4512 15.7846 75.3261 15.1188 75.076 14.5673C74.8259 14.0158 74.4757 13.5943 74.0255 13.3028C73.5753 13.0034 73.0501 12.8537 72.4498 12.8537C71.8578 12.8537 71.3368 13.0034 70.8866 13.3028C70.4363 13.5943 70.0862 14.0158 69.8361 14.5673C69.5859 15.1188 69.4609 15.7846 69.4609 16.5646C69.4609 17.3367 69.5859 17.9985 69.8361 18.55C70.0862 19.0937 70.4363 19.5152 70.8866 19.8146C71.3368 20.1061 71.8578 20.2518 72.4498 20.2518Z" fill="white"/>
<path d="M63.0119 5.18366V22.7928H59.3227V5.18366H63.0119Z" fill="white"/>
<path d="M48.1215 23.0764C46.3624 23.0764 44.8158 22.6982 43.4819 21.9418C42.1562 21.1855 41.1183 20.1258 40.3679 18.7628C39.6259 17.3997 39.2549 15.8121 39.2549 14C39.2549 12.1249 39.6384 10.5058 40.4054 9.14275C41.1724 7.77972 42.2229 6.73184 43.5569 5.99912C44.8908 5.26639 46.3915 4.90002 48.059 4.90002C49.1262 4.90002 50.1308 5.04972 51.0729 5.34912C52.015 5.64063 52.8487 6.06215 53.5741 6.61366C54.3077 7.1573 54.908 7.8073 55.3749 8.56366C55.8418 9.32002 56.1336 10.1591 56.2503 11.0809H52.3485C52.2401 10.6318 52.0692 10.2261 51.8358 9.86366C51.6023 9.49336 51.3022 9.17821 50.9353 8.91821C50.5768 8.65821 50.1641 8.46124 49.6973 8.3273C49.2387 8.18548 48.7301 8.11457 48.1715 8.11457C47.1294 8.11457 46.229 8.35487 45.4703 8.83548C44.7199 9.30821 44.1405 9.98578 43.732 10.8682C43.3318 11.7428 43.1317 12.7867 43.1317 14C43.1317 15.2055 43.336 16.2455 43.7445 17.12C44.153 17.9946 44.7366 18.6721 45.4953 19.1528C46.254 19.6255 47.1627 19.8618 48.2216 19.8618C49.0886 19.8618 49.8515 19.7082 50.5101 19.4009C51.1688 19.0858 51.6815 18.6485 52.0484 18.0891C52.4115 17.54 52.5989 16.9097 52.6105 16.1982H48.5467V13.4328H56.3754V15.6782C56.3754 17.1358 56.021 18.42 55.3124 19.5309C54.6121 20.6418 53.6408 21.5124 52.3985 22.1428C51.1563 22.7652 49.7306 23.0764 48.1215 23.0764Z" fill="white"/>
<path d="M84.4638 22.7928L80.3994 10.3128H84.2512L85.4643 14.6737C85.7061 15.564 85.9354 16.4897 86.1521 17.4509C86.2968 18.0638 86.4416 18.6718 86.5863 19.2749C86.7417 18.6718 86.8971 18.0638 87.0526 17.4509C87.3027 16.4897 87.5528 15.564 87.8029 14.6737L89.066 10.3128H92.3925L93.6431 14.6737C93.8932 15.564 94.1392 16.4897 94.381 17.4509C94.5361 18.0627 94.6913 18.6696 94.8464 19.2716C94.989 18.6696 95.1298 18.0627 95.2689 17.4509C95.494 16.4976 95.7191 15.5718 95.9442 14.6737L97.1448 10.3128H101.059L96.9947 22.7928H93.1804L91.6422 17.8291C91.5005 17.3485 91.3587 16.8561 91.217 16.3518C91.0836 15.8476 90.946 15.3394 90.8043 14.8273C90.7801 14.733 90.7558 14.639 90.7313 14.5452C90.7056 14.639 90.6799 14.733 90.6542 14.8273C90.5208 15.3394 90.3833 15.8476 90.2415 16.3518C90.0998 16.8561 89.9539 17.3485 89.8038 17.8291L88.2531 22.7928H84.4638Z" fill="white"/>
<defs>
<linearGradient id="paint0_linear_6329_555" x1="33.2626" y1="12.7402" x2="12.1204" y2="-4.50854" gradientUnits="userSpaceOnUse">
<stop stop-color="#F8FAFC" stop-opacity="0.64"/>
<stop offset="0.477764" stop-color="#F8FAFC"/>
<stop offset="1" stop-color="#F8FAFC" stop-opacity="0.64"/>
</linearGradient>
<radialGradient id="paint1_radial_6329_555" cx="0" cy="0" r="1" gradientUnits="userSpaceOnUse" gradientTransform="translate(8.78561 -5.81776) rotate(69.119) scale(76.2417 116.392)">
<stop stop-color="#E9D5FF"/>
<stop offset="0.43935" stop-color="#8712F7"/>
<stop offset="1" stop-color="#0F172A" stop-opacity="0.01"/>
</radialGradient>
<linearGradient id="paint2_linear_6329_555" x1="33.2626" y1="12.7402" x2="12.1204" y2="-4.50854" gradientUnits="userSpaceOnUse">
<stop stop-color="#F8FAFC" stop-opacity="0.64"/>
<stop offset="0.477764" stop-color="#F8FAFC"/>
<stop offset="1" stop-color="#F8FAFC" stop-opacity="0.64"/>
</linearGradient>
<radialGradient id="paint3_radial_6329_555" cx="0" cy="0" r="1" gradientUnits="userSpaceOnUse" gradientTransform="translate(8.78561 -5.81776) rotate(69.119) scale(76.2417 116.392)">
<stop stop-color="#E9D5FF"/>
<stop offset="0.43935" stop-color="#8712F7"/>
<stop offset="1" stop-color="#0F172A" stop-opacity="0.01"/>
</radialGradient>
<linearGradient id="paint4_linear_6329_555" x1="33.2626" y1="12.7402" x2="12.1204" y2="-4.50854" gradientUnits="userSpaceOnUse">
<stop stop-color="#F8FAFC" stop-opacity="0.64"/>
<stop offset="0.477764" stop-color="#F8FAFC"/>
<stop offset="1" stop-color="#F8FAFC" stop-opacity="0.64"/>
</linearGradient>
<radialGradient id="paint5_radial_6329_555" cx="0" cy="0" r="1" gradientUnits="userSpaceOnUse" gradientTransform="translate(8.78561 -5.81776) rotate(69.119) scale(76.2417 116.392)">
<stop stop-color="#E9D5FF"/>
<stop offset="0.43935" stop-color="#8712F7"/>
<stop offset="1" stop-color="#0F172A" stop-opacity="0.01"/>
</radialGradient>
<linearGradient id="paint6_linear_6329_555" x1="33.2626" y1="12.7402" x2="12.1204" y2="-4.50854" gradientUnits="userSpaceOnUse">
<stop stop-color="#F8FAFC" stop-opacity="0.64"/>
<stop offset="0.477764" stop-color="#F8FAFC"/>
<stop offset="1" stop-color="#F8FAFC" stop-opacity="0.64"/>
</linearGradient>
<radialGradient id="paint7_radial_6329_555" cx="0" cy="0" r="1" gradientUnits="userSpaceOnUse" gradientTransform="translate(8.78561 -5.81776) rotate(69.119) scale(76.2417 116.392)">
<stop stop-color="#E9D5FF"/>
<stop offset="0.43935" stop-color="#8712F7"/>
<stop offset="1" stop-color="#0F172A" stop-opacity="0.01"/>
</radialGradient>
<linearGradient id="paint8_linear_6329_555" x1="33.2626" y1="12.7402" x2="12.1204" y2="-4.50854" gradientUnits="userSpaceOnUse">
<stop stop-color="#F8FAFC" stop-opacity="0.64"/>
<stop offset="0.477764" stop-color="#F8FAFC"/>
<stop offset="1" stop-color="#F8FAFC" stop-opacity="0.64"/>
</linearGradient>
<radialGradient id="paint9_radial_6329_555" cx="0" cy="0" r="1" gradientUnits="userSpaceOnUse" gradientTransform="translate(8.78561 -5.81776) rotate(69.119) scale(76.2417 116.392)">
<stop stop-color="#E9D5FF"/>
<stop offset="0.43935" stop-color="#8712F7"/>
<stop offset="1" stop-color="#0F172A" stop-opacity="0.01"/>
</radialGradient>
<linearGradient id="paint10_linear_6329_555" x1="33.2626" y1="12.7402" x2="12.1204" y2="-4.50854" gradientUnits="userSpaceOnUse">
<stop stop-color="#F8FAFC" stop-opacity="0.64"/>
<stop offset="0.477764" stop-color="#F8FAFC"/>
<stop offset="1" stop-color="#F8FAFC" stop-opacity="0.64"/>
</linearGradient>
<radialGradient id="paint11_radial_6329_555" cx="0" cy="0" r="1" gradientUnits="userSpaceOnUse" gradientTransform="translate(8.78561 -5.81776) rotate(69.119) scale(76.2417 116.392)">
<stop stop-color="#E9D5FF"/>
<stop offset="0.43935" stop-color="#8712F7"/>
<stop offset="1" stop-color="#0F172A" stop-opacity="0.01"/>
</radialGradient>
<linearGradient id="paint12_linear_6329_555" x1="33.2626" y1="12.7402" x2="12.1204" y2="-4.50854" gradientUnits="userSpaceOnUse">
<stop stop-color="#F8FAFC" stop-opacity="0.64"/>
<stop offset="0.477764" stop-color="#F8FAFC"/>
<stop offset="1" stop-color="#F8FAFC" stop-opacity="0.64"/>
</linearGradient>
<radialGradient id="paint13_radial_6329_555" cx="0" cy="0" r="1" gradientUnits="userSpaceOnUse" gradientTransform="translate(8.78561 -5.81776) rotate(69.119) scale(76.2417 116.392)">
<stop stop-color="#E9D5FF"/>
<stop offset="0.43935" stop-color="#8712F7"/>
<stop offset="1" stop-color="#0F172A" stop-opacity="0.01"/>
</radialGradient>
<linearGradient id="paint14_linear_6329_555" x1="33.2626" y1="12.7402" x2="12.1204" y2="-4.50854" gradientUnits="userSpaceOnUse">
<stop stop-color="#F8FAFC" stop-opacity="0.64"/>
<stop offset="0.477764" stop-color="#F8FAFC"/>
<stop offset="1" stop-color="#F8FAFC" stop-opacity="0.64"/>
</linearGradient>
<radialGradient id="paint15_radial_6329_555" cx="0" cy="0" r="1" gradientUnits="userSpaceOnUse" gradientTransform="translate(8.78561 -5.81776) rotate(69.119) scale(76.2417 116.392)">
<stop stop-color="#E9D5FF"/>
<stop offset="0.43935" stop-color="#8712F7"/>
<stop offset="1" stop-color="#0F172A" stop-opacity="0.01"/>
</radialGradient>
<linearGradient id="paint16_linear_6329_555" x1="33.2626" y1="12.7402" x2="12.1204" y2="-4.50854" gradientUnits="userSpaceOnUse">
<stop stop-color="#F8FAFC" stop-opacity="0.64"/>
<stop offset="0.477764" stop-color="#F8FAFC"/>
<stop offset="1" stop-color="#F8FAFC" stop-opacity="0.64"/>
</linearGradient>
<radialGradient id="paint17_radial_6329_555" cx="0" cy="0" r="1" gradientUnits="userSpaceOnUse" gradientTransform="translate(8.78561 -5.81776) rotate(69.119) scale(76.2417 116.392)">
<stop stop-color="#E9D5FF"/>
<stop offset="0.43935" stop-color="#8712F7"/>
<stop offset="1" stop-color="#0F172A" stop-opacity="0.01"/>
</radialGradient>
<linearGradient id="paint18_linear_6329_555" x1="33.2626" y1="12.7402" x2="12.1204" y2="-4.50854" gradientUnits="userSpaceOnUse">
<stop stop-color="#F8FAFC" stop-opacity="0.64"/>
<stop offset="0.477764" stop-color="#F8FAFC"/>
<stop offset="1" stop-color="#F8FAFC" stop-opacity="0.64"/>
</linearGradient>
<radialGradient id="paint19_radial_6329_555" cx="0" cy="0" r="1" gradientUnits="userSpaceOnUse" gradientTransform="translate(8.78561 -5.81776) rotate(69.119) scale(76.2417 116.392)">
<stop stop-color="#E9D5FF"/>
<stop offset="0.43935" stop-color="#8712F7"/>
<stop offset="1" stop-color="#0F172A" stop-opacity="0.01"/>
</radialGradient>
<linearGradient id="paint20_linear_6329_555" x1="33.2626" y1="12.7402" x2="12.1204" y2="-4.50854" gradientUnits="userSpaceOnUse">
<stop stop-color="#F8FAFC" stop-opacity="0.64"/>
<stop offset="0.477764" stop-color="#F8FAFC"/>
<stop offset="1" stop-color="#F8FAFC" stop-opacity="0.64"/>
</linearGradient>
<radialGradient id="paint21_radial_6329_555" cx="0" cy="0" r="1" gradientUnits="userSpaceOnUse" gradientTransform="translate(8.78561 -5.81776) rotate(69.119) scale(76.2417 116.392)">
<stop stop-color="#E9D5FF"/>
<stop offset="0.43935" stop-color="#8712F7"/>
<stop offset="1" stop-color="#0F172A" stop-opacity="0.01"/>
</radialGradient>
<linearGradient id="paint22_linear_6329_555" x1="33.2626" y1="12.7402" x2="12.1204" y2="-4.50854" gradientUnits="userSpaceOnUse">
<stop stop-color="#F8FAFC" stop-opacity="0.64"/>
<stop offset="0.477764" stop-color="#F8FAFC"/>
<stop offset="1" stop-color="#F8FAFC" stop-opacity="0.64"/>
</linearGradient>
<radialGradient id="paint23_radial_6329_555" cx="0" cy="0" r="1" gradientUnits="userSpaceOnUse" gradientTransform="translate(8.78561 -5.81776) rotate(69.119) scale(76.2417 116.392)">
<stop stop-color="#E9D5FF"/>
<stop offset="0.43935" stop-color="#8712F7"/>
<stop offset="1" stop-color="#0F172A" stop-opacity="0.01"/>
</radialGradient>
<linearGradient id="paint24_linear_6329_555" x1="33.2626" y1="12.7402" x2="12.1204" y2="-4.50854" gradientUnits="userSpaceOnUse">
<stop stop-color="#F8FAFC" stop-opacity="0.64"/>
<stop offset="0.477764" stop-color="#F8FAFC"/>
<stop offset="1" stop-color="#F8FAFC" stop-opacity="0.64"/>
</linearGradient>
<radialGradient id="paint25_radial_6329_555" cx="0" cy="0" r="1" gradientUnits="userSpaceOnUse" gradientTransform="translate(8.78561 -5.81776) rotate(69.119) scale(76.2417 116.392)">
<stop stop-color="#E9D5FF"/>
<stop offset="0.43935" stop-color="#8712F7"/>
<stop offset="1" stop-color="#0F172A" stop-opacity="0.01"/>
</radialGradient>
<linearGradient id="paint26_linear_6329_555" x1="33.2626" y1="12.7402" x2="12.1204" y2="-4.50854" gradientUnits="userSpaceOnUse">
<stop stop-color="#F8FAFC" stop-opacity="0.64"/>
<stop offset="0.477764" stop-color="#F8FAFC"/>
<stop offset="1" stop-color="#F8FAFC" stop-opacity="0.64"/>
</linearGradient>
<radialGradient id="paint27_radial_6329_555" cx="0" cy="0" r="1" gradientUnits="userSpaceOnUse" gradientTransform="translate(8.78561 -5.81776) rotate(69.119) scale(76.2417 116.392)">
<stop stop-color="#E9D5FF"/>
<stop offset="0.43935" stop-color="#8712F7"/>
<stop offset="1" stop-color="#0F172A" stop-opacity="0.01"/>
</radialGradient>
<linearGradient id="paint28_linear_6329_555" x1="33.2626" y1="12.7402" x2="12.1204" y2="-4.50854" gradientUnits="userSpaceOnUse">
<stop stop-color="#F8FAFC" stop-opacity="0.64"/>
<stop offset="0.477764" stop-color="#F8FAFC"/>
<stop offset="1" stop-color="#F8FAFC" stop-opacity="0.64"/>
</linearGradient>
<radialGradient id="paint29_radial_6329_555" cx="0" cy="0" r="1" gradientUnits="userSpaceOnUse" gradientTransform="translate(8.78561 -5.81776) rotate(69.119) scale(76.2417 116.392)">
<stop stop-color="#E9D5FF"/>
<stop offset="0.43935" stop-color="#8712F7"/>
<stop offset="1" stop-color="#0F172A" stop-opacity="0.01"/>
</radialGradient>
<linearGradient id="paint30_linear_6329_555" x1="33.2626" y1="12.7402" x2="12.1204" y2="-4.50854" gradientUnits="userSpaceOnUse">
<stop stop-color="#F8FAFC" stop-opacity="0.64"/>
<stop offset="0.477764" stop-color="#F8FAFC"/>
<stop offset="1" stop-color="#F8FAFC" stop-opacity="0.64"/>
</linearGradient>
<radialGradient id="paint31_radial_6329_555" cx="0" cy="0" r="1" gradientUnits="userSpaceOnUse" gradientTransform="translate(8.78561 -5.81776) rotate(69.119) scale(76.2417 116.392)">
<stop stop-color="#E9D5FF"/>
<stop offset="0.43935" stop-color="#8712F7"/>
<stop offset="1" stop-color="#0F172A" stop-opacity="0.01"/>
</radialGradient>
<linearGradient id="paint32_linear_6329_555" x1="33.2626" y1="12.7402" x2="12.1204" y2="-4.50854" gradientUnits="userSpaceOnUse">
<stop stop-color="#F8FAFC" stop-opacity="0.64"/>
<stop offset="0.477764" stop-color="#F8FAFC"/>
<stop offset="1" stop-color="#F8FAFC" stop-opacity="0.64"/>
</linearGradient>
<radialGradient id="paint33_radial_6329_555" cx="0" cy="0" r="1" gradientUnits="userSpaceOnUse" gradientTransform="translate(8.78561 -5.81776) rotate(69.119) scale(76.2417 116.392)">
<stop stop-color="#E9D5FF"/>
<stop offset="0.43935" stop-color="#8712F7"/>
<stop offset="1" stop-color="#0F172A" stop-opacity="0.01"/>
</radialGradient>
<linearGradient id="paint34_linear_6329_555" x1="33.2626" y1="12.7402" x2="12.1204" y2="-4.50854" gradientUnits="userSpaceOnUse">
<stop stop-color="#F8FAFC" stop-opacity="0.64"/>
<stop offset="0.477764" stop-color="#F8FAFC"/>
<stop offset="1" stop-color="#F8FAFC" stop-opacity="0.64"/>
</linearGradient>
<radialGradient id="paint35_radial_6329_555" cx="0" cy="0" r="1" gradientUnits="userSpaceOnUse" gradientTransform="translate(8.78561 -5.81776) rotate(69.119) scale(76.2417 116.392)">
<stop stop-color="#E9D5FF"/>
<stop offset="0.43935" stop-color="#8712F7"/>
<stop offset="1" stop-color="#0F172A" stop-opacity="0.01"/>
</radialGradient>
<linearGradient id="paint36_linear_6329_555" x1="33.2626" y1="12.7402" x2="12.1204" y2="-4.50854" gradientUnits="userSpaceOnUse">
<stop stop-color="#F8FAFC" stop-opacity="0.64"/>
<stop offset="0.477764" stop-color="#F8FAFC"/>
<stop offset="1" stop-color="#F8FAFC" stop-opacity="0.64"/>
</linearGradient>
<radialGradient id="paint37_radial_6329_555" cx="0" cy="0" r="1" gradientUnits="userSpaceOnUse" gradientTransform="translate(8.78561 -5.81776) rotate(69.119) scale(76.2417 116.392)">
<stop stop-color="#E9D5FF"/>
<stop offset="0.43935" stop-color="#8712F7"/>
<stop offset="1" stop-color="#0F172A" stop-opacity="0.01"/>
</radialGradient>
<linearGradient id="paint38_linear_6329_555" x1="33.2626" y1="12.7402" x2="12.1204" y2="-4.50854" gradientUnits="userSpaceOnUse">
<stop stop-color="#F8FAFC" stop-opacity="0.64"/>
<stop offset="0.477764" stop-color="#F8FAFC"/>
<stop offset="1" stop-color="#F8FAFC" stop-opacity="0.64"/>
</linearGradient>
<radialGradient id="paint39_radial_6329_555" cx="0" cy="0" r="1" gradientUnits="userSpaceOnUse" gradientTransform="translate(8.78561 -5.81776) rotate(69.119) scale(76.2417 116.392)">
<stop stop-color="#E9D5FF"/>
<stop offset="0.43935" stop-color="#8712F7"/>
<stop offset="1" stop-color="#0F172A" stop-opacity="0.01"/>
</radialGradient>
<linearGradient id="paint40_linear_6329_555" x1="33.2626" y1="12.7402" x2="12.1204" y2="-4.50854" gradientUnits="userSpaceOnUse">
<stop stop-color="#F8FAFC" stop-opacity="0.64"/>
<stop offset="0.477764" stop-color="#F8FAFC"/>
<stop offset="1" stop-color="#F8FAFC" stop-opacity="0.64"/>
</linearGradient>
<radialGradient id="paint41_radial_6329_555" cx="0" cy="0" r="1" gradientUnits="userSpaceOnUse" gradientTransform="translate(8.78561 -5.81776) rotate(69.119) scale(76.2417 116.392)">
<stop stop-color="#E9D5FF"/>
<stop offset="0.43935" stop-color="#8712F7"/>
<stop offset="1" stop-color="#0F172A" stop-opacity="0.01"/>
</radialGradient>
<linearGradient id="paint42_linear_6329_555" x1="33.2626" y1="12.7402" x2="12.1204" y2="-4.50854" gradientUnits="userSpaceOnUse">
<stop stop-color="#F8FAFC" stop-opacity="0.64"/>
<stop offset="0.477764" stop-color="#F8FAFC"/>
<stop offset="1" stop-color="#F8FAFC" stop-opacity="0.64"/>
</linearGradient>
<radialGradient id="paint43_radial_6329_555" cx="0" cy="0" r="1" gradientUnits="userSpaceOnUse" gradientTransform="translate(8.78561 -5.81776) rotate(69.119) scale(76.2417 116.392)">
<stop stop-color="#E9D5FF"/>
<stop offset="0.43935" stop-color="#8712F7"/>
<stop offset="1" stop-color="#0F172A" stop-opacity="0.01"/>
</radialGradient>
<linearGradient id="paint44_linear_6329_555" x1="33.2626" y1="12.7402" x2="12.1204" y2="-4.50854" gradientUnits="userSpaceOnUse">
<stop stop-color="#F8FAFC" stop-opacity="0.64"/>
<stop offset="0.477764" stop-color="#F8FAFC"/>
<stop offset="1" stop-color="#F8FAFC" stop-opacity="0.64"/>
</linearGradient>
<radialGradient id="paint45_radial_6329_555" cx="0" cy="0" r="1" gradientUnits="userSpaceOnUse" gradientTransform="translate(8.78561 -5.81776) rotate(69.119) scale(76.2417 116.392)">
<stop stop-color="#E9D5FF"/>
<stop offset="0.43935" stop-color="#8712F7"/>
<stop offset="1" stop-color="#0F172A" stop-opacity="0.01"/>
</radialGradient>
<linearGradient id="paint46_linear_6329_555" x1="33.2626" y1="12.7402" x2="12.1204" y2="-4.50854" gradientUnits="userSpaceOnUse">
<stop stop-color="#F8FAFC" stop-opacity="0.64"/>
<stop offset="0.477764" stop-color="#F8FAFC"/>
<stop offset="1" stop-color="#F8FAFC" stop-opacity="0.64"/>
</linearGradient>
<radialGradient id="paint47_radial_6329_555" cx="0" cy="0" r="1" gradientUnits="userSpaceOnUse" gradientTransform="translate(8.78561 -5.81776) rotate(69.119) scale(76.2417 116.392)">
<stop stop-color="#E9D5FF"/>
<stop offset="0.43935" stop-color="#8712F7"/>
<stop offset="1" stop-color="#0F172A" stop-opacity="0.01"/>
</radialGradient>
<linearGradient id="paint48_linear_6329_555" x1="33.2626" y1="12.7402" x2="12.1204" y2="-4.50854" gradientUnits="userSpaceOnUse">
<stop stop-color="#F8FAFC" stop-opacity="0.64"/>
<stop offset="0.477764" stop-color="#F8FAFC"/>
<stop offset="1" stop-color="#F8FAFC" stop-opacity="0.64"/>
</linearGradient>
<radialGradient id="paint49_radial_6329_555" cx="0" cy="0" r="1" gradientUnits="userSpaceOnUse" gradientTransform="translate(8.78561 -5.81776) rotate(69.119) scale(76.2417 116.392)">
<stop stop-color="#E9D5FF"/>
<stop offset="0.43935" stop-color="#8712F7"/>
<stop offset="1" stop-color="#0F172A" stop-opacity="0.01"/>
</radialGradient>
<linearGradient id="paint50_linear_6329_555" x1="33.2626" y1="12.7402" x2="12.1204" y2="-4.50854" gradientUnits="userSpaceOnUse">
<stop stop-color="#F8FAFC" stop-opacity="0.64"/>
<stop offset="0.477764" stop-color="#F8FAFC"/>
<stop offset="1" stop-color="#F8FAFC" stop-opacity="0.64"/>
</linearGradient>
<radialGradient id="paint51_radial_6329_555" cx="0" cy="0" r="1" gradientUnits="userSpaceOnUse" gradientTransform="translate(8.78561 -5.81776) rotate(69.119) scale(76.2417 116.392)">
<stop stop-color="#E9D5FF"/>
<stop offset="0.43935" stop-color="#8712F7"/>
<stop offset="1" stop-color="#0F172A" stop-opacity="0.01"/>
</radialGradient>
<linearGradient id="paint52_linear_6329_555" x1="33.2626" y1="12.7402" x2="12.1204" y2="-4.50854" gradientUnits="userSpaceOnUse">
<stop stop-color="#F8FAFC" stop-opacity="0.64"/>
<stop offset="0.477764" stop-color="#F8FAFC"/>
<stop offset="1" stop-color="#F8FAFC" stop-opacity="0.64"/>
</linearGradient>
<radialGradient id="paint53_radial_6329_555" cx="0" cy="0" r="1" gradientUnits="userSpaceOnUse" gradientTransform="translate(8.78561 -5.81776) rotate(69.119) scale(76.2417 116.392)">
<stop stop-color="#E9D5FF"/>
<stop offset="0.43935" stop-color="#8712F7"/>
<stop offset="1" stop-color="#0F172A" stop-opacity="0.01"/>
</radialGradient>
</defs>
</svg>
