<svg width="24" height="24" viewBox="0 0 24 24" fill="none" xmlns="http://www.w3.org/2000/svg">
<path d="M16.372 3C13.5942 3 11.3186 5.17848 11.3186 7.8962C11.3186 7.96004 11.32 8.02382 11.3228 8.08754C8.26415 7.70039 5.54964 6.18422 3.68959 4.00699C3.54422 3.83683 3.32477 3.74593 3.09977 3.76267C2.87478 3.7794 2.67165 3.90174 2.55381 4.09148C1.6342 5.57228 1.68034 7.3929 2.47017 8.84801C2.11412 8.87851 1.82887 9.18281 1.82887 9.53772C1.82887 11.0045 2.49902 12.3576 3.5844 13.2763C3.3911 13.4548 3.3139 13.7378 3.39476 13.9902C3.839 15.3768 4.90251 16.474 6.2582 17.0198C4.87824 17.6661 3.32644 17.9246 1.78756 17.7388C1.46214 17.6995 1.15246 17.8875 1.0415 18.1917C0.930549 18.4958 1.04786 18.8352 1.32412 19.0093C3.3447 20.2825 5.75537 21 8.37404 21C16.8247 21 21.4626 14.2568 21.4626 8.37665V7.92951L21.4806 7.91303C21.66 7.7474 21.8894 7.50118 22.1157 7.16225C22.5723 6.47816 23 5.43936 23 3.97257C23 3.72425 22.8651 3.49496 22.6465 3.37165C22.4279 3.24834 22.1591 3.24991 21.942 3.37576C21.2827 3.75795 20.533 4.05963 19.7712 4.25395C18.8473 3.45209 17.664 3 16.372 3Z" fill="black"/>
</svg>
